<svg width="24" height="24" viewBox="0 0 24 24" fill="none" xmlns="http://www.w3.org/2000/svg">
<path d="M19.4637 11.6623C20.3453 11.9951 20.9884 12.5726 21.393 13.3948C21.7976 14.217 21.9999 15.1468 21.9999 16.1843C21.9999 17.5742 21.682 18.7292 21.0462 19.6492C20.4103 20.5497 19.3265 21 17.7946 21H13.1558V3H17.166C18.6689 3 19.7455 3.42088 20.3958 4.26264C21.0606 5.1044 21.393 6.22023 21.393 7.61011C21.393 8.5106 21.2412 9.323 20.9378 10.0473C20.6487 10.752 20.1574 11.2904 19.4637 11.6623ZM15.3668 11.2219H17.0143C17.7946 11.2219 18.351 10.8989 18.6834 10.2528C19.0158 9.58727 19.1819 8.71614 19.1819 7.63947C19.1819 6.4845 19.0013 5.61338 18.64 5.0261C18.2787 4.41925 17.7368 4.11582 17.0143 4.11582H15.3668V11.2219ZM17.5778 19.8842C19.0519 19.8842 19.7889 18.6509 19.7889 16.1843C19.7889 15.1077 19.601 14.1974 19.2253 13.4535C18.8496 12.7096 18.3004 12.3377 17.5778 12.3377H15.3668V19.8842H17.5778Z" fill="black"/>
<path d="M4.94806 12.6019H4.21104V21H2V3H4.21104V11.075H5.85849L9.80369 3H11.1043L6.85563 11.6329L11.3644 21H9.02332L4.94806 12.6019Z" fill="black"/>
</svg>
